<?xml version="1.0" encoding="UTF-8"?>
<svg width="28px" height="32px" viewBox="0 0 28 32" version="1.1"
    xmlns="http://www.w3.org/2000/svg">
    <title>Group</title>
    <g id="GoalOne" stroke="none" stroke-width="1" fill="none" fill-rule="evenodd">
        <g id="GoalOne-4.1" transform="translate(-51.000000, -738.000000)">
            <g id="Group" transform="translate(52.000000, 739.000000)">
                <path
                    d="M18,13.1113281 L18,13.1113281 L18,29 C18,29.5522847 17.5522847,30 17,30 L1,30 C0.44771525,30 0,29.5522847 0,29 L0,4 C0,3.44771525 0.44771525,3 1,3 L8.10664063,3 L8.10664063,3"
                    id="Path" stroke="#000000" stroke-width="2"></path>
                <g id="mobile-chat" transform="translate(8.000000, 0.000000)"
                    stroke-linecap="square" stroke-width="1.79999995">
                    <path
                        d="M15.3999994,12.5999997 L4.59999979,12.5999997 L0.0999997854,15.2999996 L0.0999997854,1.79999995 C0.0999997854,0.805887429 0.905887214,0 1.89999974,0 L15.3999994,0 C16.3941119,0 17.1999993,0.805887429 17.1999993,1.79999995 L17.1999993,10.7999997 C17.1999993,11.7941122 16.3941119,12.5999997 15.3999994,12.5999997 Z"
                        id="Path" stroke="#3FAE2A"></path>
                    <line x1="4.59999967" y1="8.09999979" x2="8.19999957" y2="8.09999979" id="Path"
                        stroke="#111111"></line>
                    <line x1="4.59999967" y1="4.49999988" x2="12.6999995" y2="4.49999988" id="Path"
                        stroke="#111111"></line>
                </g>
            </g>
        </g>
    </g>
</svg>