<?xml version="1.0" encoding="UTF-8"?>
<svg width="22px" height="21px" viewBox="0 0 32 28" version="1.1"
    xmlns="http://www.w3.org/2000/svg">
    <title>Group 6</title>
    <g id="GoalOne" stroke="none" stroke-width="1" fill="none" fill-rule="evenodd">
        <g id="GoalOne-4.0" transform="translate(-274.000000, -52.000000)">
            <g id="Group-6" transform="translate(276.000000, 53.000000)">
                <g id="bell" transform="translate(0.000000, 1.000000)">
                    <path
                        d="M18.6659999,10.98 L18.6659999,7.68599998 C18.6659999,3.44113945 15.2248605,1.14530325e-07 10.98,1.14530325e-07 C6.73513944,1.14530325e-07 3.29400005,3.44113945 3.29399999,7.68599998 L3.29399999,10.98 C3.29399999,14.6034 -1.9504398e-15,15.4818 -1.9504398e-15,17.5679999 C-1.9504398e-15,19.4345999 4.28219999,20.8619999 10.98,20.8619999 C17.6777999,20.8619999 21.9599999,19.4345999 21.9599999,17.5679999 C21.9599999,15.4818 18.6659999,14.6034 18.6659999,10.98 Z"
                        id="Path" stroke="#000000" stroke-width="2.19599999"
                        stroke-linecap="square"></path>
                    <path
                        d="M10.98,23.0579999 C9.86992197,23.0579999 8.82682197,23.0206679 7.84520998,22.9481999 C8.2747099,24.3182687 9.54418706,25.2506973 10.98,25.2506973 C12.4158129,25.2506973 13.68529,24.3182687 14.11479,22.9481999 C13.133178,23.0206679 12.090078,23.0579999 10.98,23.0579999 Z"
                        id="Path" fill="#000000" fill-rule="nonzero"></path>
                </g>
            </g>
        </g>
    </g>
</svg>