<?xml version="1.0" encoding="UTF-8"?>
<svg width="26px" height="33px" viewBox="0 0 26 33" version="1.1"
    xmlns="http://www.w3.org/2000/svg">
    <title>Group 8</title>
    <g id="GoalOne" stroke="none" stroke-width="1" fill="none" fill-rule="evenodd">
        <g id="GoalOne-4.0" transform="translate(-48.000000, -437.000000)">
            <g id="Group-18" transform="translate(30.000000, 426.000000)">
                <g id="Group-8" transform="translate(19.000000, 11.186441)">
                    <g id="winner" transform="translate(0.000000, 7.118644)" stroke="#111111"
                        stroke-width="1.6">
                        <path
                            d="M5,0 L5,9.15254237 C5,13.0840609 8.13400675,16.2711864 12,16.2711864 L12,16.2711864 C15.8659932,16.2711864 19,13.0840609 19,9.15254237 L19,0 L5,0 Z"
                            id="Path" stroke-linecap="square"></path>
                        <line x1="12" y1="23.3898305" x2="12" y2="16.2711864" id="Path"></line>
                        <line x1="7" y1="23.3898305" x2="17" y2="23.3898305" id="Path"
                            stroke-linecap="square"></line>
                        <path
                            d="M5,0 L0,0 L0,3.05084746 C0,7.11864407 2.162,9.68542373 5,10.1694915"
                            id="Path"></path>
                        <path
                            d="M19,0 L24,0 L24,3.05084746 C24,7.11864407 21.838,9.68542373 19,10.1694915"
                            id="Path"></path>
                    </g>
                    <g id="star" transform="translate(12.000000, 0.000000)" fill="#3FAE2A"
                        fill-rule="nonzero">
                        <path
                            d="M11.572,4.34237288 L8.032,3.81966102 L6.448,0.557288136 C6.35462414,0.39454317 6.18328213,0.294474084 5.998,0.294474084 C5.81271787,0.294474084 5.64137586,0.39454317 5.548,0.557288136 L3.968,3.81966102 L0.428,4.34237288 C0.239608927,4.37019426 0.0830978037,4.50439392 0.0243011773,4.68852238 C-0.0344954491,4.87265083 0.0146247712,5.07475824 0.151,5.20983051 L2.713,7.75220339 L2.107,11.3379661 C2.07472256,11.5288663 2.15190387,11.7218344 2.30604741,11.835623 C2.46019094,11.9494115 2.66451862,11.9642529 2.833,11.8738983 L6,10.1776271 L9.167,11.8708475 C9.23841639,11.9094184 9.31813853,11.9293373 9.399,11.9288136 C9.54648866,11.9291455 9.68659734,11.8632401 9.78184944,11.7487258 C9.87710154,11.6342115 9.91777852,11.4827722 9.893,11.3349153 L9.287,7.74915254 L11.849,5.20677966 C11.9853752,5.07170739 12.0344954,4.86959998 11.9756988,4.68547153 C11.9169022,4.50134307 11.7603911,4.36714341 11.572,4.33932203 L11.572,4.34237288 Z"
                            id="Path"></path>
                    </g>
                </g>
            </g>
        </g>
    </g>
</svg>