<?xml version="1.0" encoding="UTF-8"?>
<svg height="75px" version="1.1" viewBox="0 0 315 75" width="315px"
    xmlns="http://www.w3.org/2000/svg">
    <title>Group</title>
    <g fill="none" fill-rule="evenodd" id="GoalOne" stroke="none" stroke-width="1">
        <g id="GoalOne-LoadingScreen" transform="translate(-30.000000, -369.000000)">
            <g id="Group" transform="translate(30.000000, 369.410352)">
                <path
                    d="M2.07295091,73.3400575 C1.22362422,73.1736642 0.533347471,72.9479932 -9.09494702e-13,72.6625246 L-9.09494702e-13,68.9888716 C0.678613085,69.3694963 1.39645849,69.6549649 2.15459654,69.8447573 C2.91167427,70.0355897 3.61149401,70.1302259 4.25405577,70.1302259 C4.61774997,70.1302259 4.87859188,70.0943473 5.03605132,70.0236302 C5.19351076,69.951873 5.27250557,69.8395575 5.27250557,69.6846037 C5.27250557,69.4708923 5.15109744,69.2894195 4.90881137,69.1407055 C4.66652529,68.9919914 4.15120348,68.7455213 3.36390627,68.4007751 C2.20019086,67.9010751 1.35457534,67.3457373 0.827589863,66.7332018 C0.300074223,66.1206663 0.0360513201,65.3755361 0.0360513201,64.4952113 C0.0360513201,63.7350017 0.251298908,63.0595487 0.681794083,62.4719722 C1.11228926,61.8828358 1.71826954,61.4226542 2.49973492,61.0893475 C3.28173046,60.7565609 4.17559114,60.5896475 5.1818471,60.5896475 C6.0057258,60.5896475 6.7394762,60.6556849 7.38150779,60.7856797 C8.02406956,60.9167144 8.63588167,61.1189864 9.21800445,61.3924954 L9.21800445,64.9413535 C8.12692185,64.3470172 7.04803308,64.0495891 5.98186831,64.0495891 C5.12140812,64.0495891 4.69091295,64.2336618 4.69091295,64.601807 C4.69091295,64.7806799 4.79058424,64.9293939 4.990457,65.0479492 C5.19085993,65.1670244 5.55137313,65.327698 6.07252677,65.5294499 L6.74530803,65.7972392 C7.60576821,66.153425 8.26635564,66.5075308 8.7270703,66.8579968 C9.18778496,67.2089828 9.51489768,67.6072868 9.70893861,68.052909 C9.90244937,68.4985312 10,69.0606287 10,69.7381616 C10,70.9387936 9.550949,71.8804759 8.65443749,72.5642485 C7.75686566,73.2480212 6.40600148,73.5896475 4.60025448,73.5896475 C3.76365179,73.5896475 2.9206871,73.5064509 2.07295091,73.3400575"
                    fill="#006937" id="Fill-3"></path>
                <path
                    d="M30.204349,68.9353137 C30.6493526,68.4839718 30.8721042,67.8714363 30.8721042,67.0987472 C30.8721042,66.3260581 30.6493526,65.7140426 30.204349,65.2621806 C29.7588459,64.8097987 29.1939759,64.5846477 28.5087403,64.5846477 C27.8120174,64.5846477 27.2411541,64.8097987 26.7961504,65.2621806 C26.3506474,65.7140426 26.1273964,66.3260581 26.1273964,67.0987472 C26.1273964,67.8714363 26.353644,68.4839718 26.8041415,68.9353137 C27.2556379,69.3871756 27.8235046,69.6133666 28.5087403,69.6133666 C29.1939759,69.6133666 29.7588459,69.3871756 30.204349,68.9353137 M25.194437,72.7691204 C24.2065389,72.2226222 23.4269084,71.4587728 22.8565446,70.478092 C22.2851819,69.4974112 22,68.3711363 22,67.0987472 C22,65.8263581 22.2851819,64.6974832 22.8565446,63.7105627 C23.4269084,62.7241622 24.2065389,61.9571928 25.194437,61.4101747 C26.1818356,60.8636766 27.2866034,60.5896475 28.5087403,60.5896475 C29.7188905,60.5896475 30.8181644,60.8636766 31.805563,61.4101747 C32.7934611,61.9571928 33.5725921,62.7241622 34.1434554,63.7105627 C34.7143186,64.6974832 35,65.8263581 35,67.0987472 C35,68.3711363 34.7143186,69.4974112 34.1434554,70.478092 C33.5725921,71.4587728 32.7934611,72.2226222 31.805563,72.7691204 C30.8181644,73.3166585 29.7188905,73.5896475 28.5087403,73.5896475 C27.2866034,73.5896475 26.1818356,73.3166585 25.194437,72.7691204"
                    fill="#006937" id="Fill-5"></path>
                <path
                    d="M49.1193731,72.8138386 C48.1170038,72.2969792 47.3461819,71.5471692 46.8074084,70.5670084 C46.2691361,69.5863277 46,68.4298939 46,67.0987472 C46,65.7551209 46.2691361,64.5960873 46.8074084,63.6211263 C47.3461819,62.6466853 48.1170038,61.8979152 49.1193731,61.3748161 C50.1217423,60.851717 51.2995262,60.5896475 52.6517223,60.5896475 C53.5338072,60.5896475 54.3126481,60.6676444 54.9887461,60.8220782 C55.6653454,60.9765121 56.2893202,61.2261021 56.8621742,61.5708483 L56.8621742,65.5653285 C56.3695098,65.1847037 55.8106889,64.9117146 55.1862129,64.7448013 C54.562238,64.578408 53.8375251,64.4952113 53.0125752,64.4952113 C52.1184618,64.4952113 51.4163022,64.7182824 50.9070986,65.1639046 C50.3968927,65.6100467 50.1417897,66.2548209 50.1417897,67.0987472 C50.1417897,67.9426734 50.3998998,68.5874476 50.9151176,69.0330698 C51.4308365,69.4792119 52.1299891,69.702283 53.0125752,69.702283 C53.8144706,69.702283 54.5361764,69.6102467 55.1781939,69.4256541 C55.8197102,69.2415815 56.4266448,68.9592327 57,68.578608 L57,72.5554089 C55.8422635,73.2449013 54.3928376,73.5896475 52.6517223,73.5896475 C51.2995262,73.5896475 50.1217423,73.3306979 49.1193731,72.8138386"
                    fill="#006937" id="Fill-7"></path>
                <path
                    d="M73.1193731,72.8138386 C72.1165026,72.2969792 71.3461819,71.5471692 70.8074084,70.5670084 C70.2691361,69.5863277 70,68.4298939 70,67.0987472 C70,65.7551209 70.2691361,64.5960873 70.8074084,63.6211263 C71.3461819,62.6466853 72.1165026,61.8979152 73.1193731,61.3748161 C74.1217423,60.851717 75.299025,60.5896475 76.6517223,60.5896475 C77.5338072,60.5896475 78.3126481,60.6676444 78.9887461,60.8220782 C79.6653454,60.9765121 80.2893202,61.2261021 80.8621742,61.5708483 L80.8621742,65.5653285 C80.3695098,65.1847037 79.8106889,64.9117146 79.1862129,64.7448013 C78.562238,64.578408 77.8375251,64.4952113 77.0125752,64.4952113 C76.1184618,64.4952113 75.4163022,64.7182824 74.9070986,65.1639046 C74.3968927,65.6100467 74.1417897,66.2548209 74.1417897,67.0987472 C74.1417897,67.9426734 74.3998998,68.5874476 74.9151176,69.0330698 C75.4308365,69.4792119 76.1299891,69.702283 77.0125752,69.702283 C77.8144706,69.702283 78.5361764,69.6102467 79.1776927,69.4256541 C79.8197102,69.2415815 80.4266448,68.9592327 81,68.578608 L81,72.5554089 C79.8422635,73.2449013 78.3928376,73.5896475 76.6517223,73.5896475 C75.299025,73.5896475 74.1217423,73.3306979 73.1193731,72.8138386"
                    fill="#006937" id="Fill-9"></path>
                <polygon fill="#006937" id="Fill-11"
                    points="95 60.5896475 104 60.5896475 104 64.1668885 99.117253 64.1668885 99.117253 65.5806956 102.575401 65.5806956 102.575401 68.6153744 99.117253 68.6153744 99.117253 70.0124065 104 70.0124065 104 73.5896475 95 73.5896475"></polygon>
                <path
                    d="M123.013661,66.5400084 C124.076809,66.5400084 124.608894,66.0792237 124.608894,65.1560817 C124.608894,64.2334638 124.076809,63.7721549 123.013661,63.7721549 L122.08494,63.7721549 L122.08494,66.5400084 L123.013661,66.5400084 Z M118,60.5896475 L123.889736,60.5896475 C125.40881,60.5896475 126.612518,60.9796633 127.50086,61.7586463 C128.38869,62.5371051 128.833372,63.669933 128.833372,65.1560817 C128.833372,66.0907564 128.651921,66.8849417 128.289531,67.5381132 C127.927141,68.1912847 127.412945,68.7039667 126.747456,69.0751107 L129,73.5896475 L124.810789,73.5896475 L122.873101,69.7219916 L122.08494,69.7219916 L122.08494,73.5896475 L118,73.5896475 L118,60.5896475 Z"
                    fill="#006937" id="Fill-13"></path>
                <path
                    d="M164.119231,72.8138386 C163.116406,72.2969792 162.346121,71.5471692 161.807873,70.5670084 C161.269124,69.5863277 161,68.4298939 161,67.0987472 C161,65.7551209 161.269124,64.5960873 161.807873,63.6211263 C162.346121,62.6466853 163.116406,61.8979152 164.119231,61.3748161 C165.121555,60.851717 166.299285,60.5896475 167.651419,60.5896475 C168.533464,60.5896475 169.312269,60.6676444 169.988337,60.8220782 C170.664905,60.9765121 171.289353,61.2261021 171.861679,61.5708483 L171.861679,65.5653285 C171.369538,65.1847037 170.810743,64.9117146 170.185794,64.7448013 C169.561848,64.578408 168.837168,64.4952113 168.012256,64.4952113 C167.118183,64.4952113 166.416055,64.7182824 165.906374,65.1639046 C165.396692,65.6100467 165.141601,66.2548209 165.141601,67.0987472 C165.141601,67.9426734 165.399699,68.5874476 165.915395,69.0330698 C166.430589,69.4792119 167.130211,69.702283 168.012256,69.702283 C168.814115,69.702283 169.536289,69.6102467 170.177776,69.4256541 C170.819263,69.2415815 171.42617,68.9592327 172,68.578608 L172,72.5554089 C170.841815,73.2449013 169.392455,73.5896475 167.651419,73.5896475 C166.299285,73.5896475 165.121555,73.3306979 164.119231,72.8138386"
                    fill="#006937" id="Fill-15"></path>
                <polygon fill="#006937" id="Fill-17"
                    points="208 60.5896475 211.570206 60.5896475 215.123477 66.9656708 215.123477 60.5896475 219 60.5896475 219 73.5896475 215.695268 73.5896475 211.877519 67.8285281 211.877519 73.5896475 208 73.5896475"></polygon>
                <polygon fill="#006937" id="Fill-19"
                    points="237.008576 64.1668885 234 64.1668885 234 60.5896475 244 60.5896475 244 64.1668885 240.991914 64.1668885 240.991914 73.5896475 237.008576 73.5896475"></polygon>
                <path
                    d="M307.072531,73.3400575 C306.223159,73.1736642 305.533376,72.9479932 305,72.6625246 L305,68.9888716 C305.678119,69.3694963 306.396533,69.6549649 307.154181,69.8447573 C307.911298,70.0355897 308.611155,70.1302259 309.253751,70.1302259 C309.617995,70.1302259 309.878851,70.0943473 310.036318,70.0236302 C310.193256,69.951873 310.272255,69.8395575 310.272255,69.6846037 C310.272255,69.4708923 310.151371,69.2894195 309.909072,69.1407055 C309.666773,68.9919914 309.151424,68.7455213 308.363554,68.4007751 C307.199777,67.9010751 306.354117,67.3457373 305.827104,66.7332018 C305.29956,66.1206663 305.035523,65.3755361 305.035523,64.4952113 C305.035523,63.7350017 305.250782,63.0595487 305.6813,62.4719722 C306.111818,61.8828358 306.71783,61.4226542 307.499867,61.0893475 C308.281374,60.7565609 309.175282,60.5896475 310.181592,60.5896475 C311.006044,60.5896475 311.739303,60.6556849 312.381899,60.7856797 C313.024495,60.9167144 313.63634,61.1189864 314.217963,61.3924954 L314.217963,64.9413535 C313.127353,64.3470172 312.048407,64.0495891 310.981655,64.0495891 C310.121149,64.0495891 309.690631,64.2336618 309.690631,64.601807 C309.690631,64.7806799 309.790308,64.9293939 309.990722,65.0479492 C310.190605,65.1670244 310.551667,65.327698 311.072319,65.5294499 L311.745135,65.7972392 C312.605641,66.153425 313.266794,66.5075308 313.727003,66.8579968 C314.187742,67.2089828 314.514872,67.6072868 314.708923,68.052909 C314.902974,68.4985312 315,69.0606287 315,69.7381616 C315,70.9387936 314.550925,71.8804759 313.654366,72.5642485 C312.757277,73.2480212 311.406341,73.5896475 309.599968,73.5896475 C308.763321,73.5896475 307.920842,73.5064509 307.072531,73.3400575"
                    fill="#006937" id="Fill-21"></path>
                <polygon fill="#006937" id="Fill-23"
                    points="-9.09494702e-13 53.5896475 315 53.5896475 315 52.5896475 -9.09494702e-13 52.5896475"></polygon>
                <path
                    d="M10.2212638,39.1432498 C6.93580374,37.5119833 4.41076911,35.1499095 2.6466625,32.0570283 C0.881550708,28.9636452 -9.09494702e-13,25.3176392 -9.09494702e-13,21.1180065 C-9.09494702e-13,16.8807291 0.881550708,13.2251865 2.6466625,10.1503747 C4.41076911,7.07656679 6.93580374,4.71449297 10.2212638,3.06415325 C13.5062213,1.41481739 17.3636339,0.589647532 21.7945068,0.589647532 C24.7226222,0.589647532 27.2758021,0.834086535 29.453544,1.32095683 C31.6307832,1.80832905 33.6768453,2.59635623 35.5917303,3.68303065 L35.5917303,16.168995 C33.9768942,14.9688848 32.1469478,14.1065723 30.1008857,13.5810535 C28.0538184,13.0565386 25.6800647,12.7940302 22.9771116,12.7940302 C20.085183,12.7940302 17.7858133,13.5163048 16.0779972,14.9593482 C14.369176,16.4028935 13.5157706,18.4557796 13.5157706,21.1180065 C13.5157706,24.0055991 14.2103562,26.1889865 15.5995273,27.6701764 C16.9881958,29.1513663 19.2408243,29.8912084 22.3574126,29.8912084 C23.4842294,29.8912084 24.4597653,29.7421357 25.2860306,29.4419827 L25.2860306,25.7292203 L20.9496455,25.7292203 L20.9496455,18.0808393 L37,18.0808393 L37,38.2714006 C33.1325355,40.4844018 28.0638702,41.5896475 21.7945068,41.5896475 C17.3636339,41.5896475 13.5062213,40.7740143 10.2212638,39.1432498"
                    fill="#3FAE2A" id="Fill-26"></path>
                <path
                    d="M71.1367126,26.9105794 C72.6095336,25.4860899 73.3461968,23.5551487 73.3461968,21.1177559 C73.3461968,18.6808649 72.6095336,16.7504257 71.1367126,15.3249323 C69.6638917,13.8999409 67.7946782,13.1871942 65.5285666,13.1871942 C63.2245347,13.1871942 61.3361083,13.8999409 59.8632874,15.3249323 C58.3899608,16.7504257 57.6538032,18.6808649 57.6538032,21.1177559 C57.6538032,23.5551487 58.3985561,25.4860899 59.8910955,26.9105794 C61.3831293,28.3360728 63.2619493,29.0483175 65.5285666,29.0483175 C67.7946782,29.0483175 69.6638917,28.3360728 71.1367126,26.9105794 M54.5655814,39.0026782 C51.2983762,37.278534 48.7208132,34.8687475 46.8328924,31.7753265 C44.9434548,28.6824074 44,25.1302185 44,21.1177559 C44,17.1062971 44.9434548,13.5440695 46.8328924,10.431575 C48.7208132,7.32008434 51.2983762,4.90076109 54.5655814,3.17661683 C57.832281,1.45197063 61.4867779,0.589647532 65.5285666,0.589647532 C69.5314238,0.589647532 73.1667078,1.45197063 76.4344186,3.17661683 C79.700107,4.90076109 82.2781756,7.32008434 84.1671076,10.431575 C86.055534,13.5440695 87,17.1062971 87,21.1177559 C87,25.1302185 86.055534,28.6824074 84.1671076,31.7753265 C82.2781756,34.8687475 79.700107,37.278534 76.4344186,39.0026782 C73.1667078,40.7273244 69.5314238,41.5896475 65.5285666,41.5896475 C61.4867779,41.5896475 57.832281,40.7273244 54.5655814,39.0026782"
                    fill="#3FAE2A" id="Fill-27"></path>
                <polygon fill="#3FAE2A" id="Fill-28"
                    points="141 0.589647532 154.325353 0.589647532 154.325353 30.3935883 169 30.3935883 169 41.5896475 141 41.5896475"></polygon>
                <path
                    d="M217.136899,26.9105794 C218.609703,25.4860899 219.346357,23.5551487 219.346357,21.1177559 C219.346357,18.6808649 218.609703,16.7504257 217.136899,15.3249323 C215.664096,13.8999409 213.794904,13.1871942 211.528313,13.1871942 C209.224814,13.1871942 207.335904,13.8999409 205.863101,15.3249323 C204.389792,16.7504257 203.653643,18.6808649 203.653643,21.1177559 C203.653643,23.5551487 204.398892,25.4860899 205.891414,26.9105794 C207.383431,28.3360728 209.262228,29.0483175 211.528313,29.0483175 C213.794904,29.0483175 215.664096,28.3360728 217.136899,26.9105794 M200.565963,39.0026782 C197.298796,37.278534 194.720758,34.8687475 192.833365,31.7753265 C190.943949,28.6824074 190,25.1302185 190,21.1177559 C190,17.1062971 190.943949,13.5440695 192.833365,10.431575 C194.720758,7.32008434 197.298796,4.90076109 200.565963,3.17661683 C203.832624,1.45197063 207.486572,0.589647532 211.528313,0.589647532 C215.531124,0.589647532 219.16687,1.45197063 222.434543,3.17661683 C225.700193,4.90076109 228.278231,7.32008434 230.166635,10.431575 C232.055545,13.5440695 233,17.1062971 233,21.1177559 C233,25.1302185 232.055545,28.6824074 230.166635,31.7753265 C228.278231,34.8687475 225.700193,37.278534 222.434543,39.0026782 C219.16687,40.7273244 215.531124,41.5896475 211.528313,41.5896475 C207.486572,41.5896475 203.832624,40.7273244 200.565963,39.0026782"
                    fill="#3FAE2A" id="Fill-29"></path>
                <polygon fill="#3FAE2A" id="Fill-30"
                    points="241 0.589647532 252.683375 0.589647532 264.310874 19.9279976 264.310874 0.589647532 277 0.589647532 277 41.5896475 265.316625 41.5896475 253.689625 23.3686556 253.689625 41.5896475 241 41.5896475"></polygon>
                <polygon fill="#3FAE2A" id="Fill-31"
                    points="286 0.589647532 315 0.589647532 315 11.830217 299.268163 11.830217 299.268163 17.2977575 310.408904 17.2977575 310.408904 25.3866524 299.268163 25.3866524 299.268163 30.3485739 315 30.3485739 315 41.5896475 286 41.5896475"></polygon>
                <g fill="#3FAE2A" id="Group-2" transform="translate(204.000000, 12.589648)">
                    <path
                        d="M9.03585,2.58075 C9.03585,2.58075 11.01585,2.84975 12.41335,3.50775 C12.41335,3.50775 12.99535,4.79275 13.22835,6.76525 L10.37535,8.11075 L7.92785,5.54025 C7.92785,5.54025 8.80285,3.11875 9.03585,2.58075"
                        id="Fill-32"></path>
                    <path
                        d="M2.33955,4.6135 C2.33955,4.6135 3.27105,5.5405 4.29005,6.5565 C4.29005,6.5565 3.56205,8.2005 3.50405,10.1435 L1.02905,10.263 C1.02905,10.263 0.27105,8.559 0.35955,6.885 C0.35955,6.885 0.88355,5.6595 2.33955,4.6135"
                        id="Fill-33"></path>
                    <path
                        d="M9.6184,11.6081 L11.5399,13.5206 C11.5399,13.5206 10.7539,14.7461 9.6184,15.6431 C9.6184,15.6431 7.5219,15.7326 6.1244,15.1646 C6.1244,15.1646 5.9789,13.9696 6.1244,12.6241 C6.1244,12.6241 8.8904,11.8766 9.6184,11.6081"
                        id="Fill-34"></path>
                    <path
                        d="M13.22825,2.58075 C13.22825,2.58075 12.96275,2.10375 12.51275,1.47225 C13.03375,1.84375 13.50975,2.27675 13.93125,2.76125 L13.22825,2.58075 Z"
                        id="Fill-35"></path>
                    <path
                        d="M6.93965,0.9665 C6.93965,0.9665 4.78465,1.355 3.64965,1.983 L2.95015,1.639 C4.29765,0.5935 6.10865,9.23705556e-14 7.92815,9.23705556e-14 C8.01265,9.23705556e-14 8.09715,0.002 8.18165,0.005 C7.33565,0.532 6.93965,0.9665 6.93965,0.9665"
                        id="Fill-36"></path>
                    <path
                        d="M14.20235,12.0798 C14.05685,12.1803 12.83835,13.0103 11.55385,13.4568 L9.67785,11.5898 L10.42235,8.1503 L13.21835,6.8318 C13.37435,6.9768 14.19085,7.7563 14.91935,8.8138 C14.90035,9.0083 14.73585,10.5643 14.20235,12.0798 L14.20235,12.0798 Z M11.52535,13.5848 L11.55685,13.5738 C12.94585,13.0988 14.26535,12.1718 14.27835,12.1623 L14.29285,12.1523 L14.29835,12.1348 C14.87685,10.5033 15.02785,8.8198 15.02935,8.8028 L15.03135,8.7823 L15.01985,8.7658 C14.20435,7.5773 13.27385,6.7318 13.26435,6.7233 L13.23785,6.6993 L10.32785,8.0713 L9.55835,11.6263 L11.52535,13.5848 Z"
                        id="Fill-37"></path>
                    <path
                        d="M9.572,11.5632 L6.133,12.5632 C5.2355,11.9672 3.728,10.3092 3.56,10.1222 C3.6445,8.2892 4.249,6.7957 4.331,6.6007 C5.957,6.0012 7.669,5.6487 7.9095,5.6007 L10.3155,8.1282 L9.572,11.5632 Z M6.1155,12.6847 L9.6645,11.6527 L10.435,8.0937 L7.9465,5.4792 L7.918,5.4852 C7.899,5.4887 6.0315,5.8522 4.2715,6.5037 L4.2495,6.5112 L4.2405,6.5332 C4.233,6.5492 3.5365,8.1502 3.4495,10.1407 L3.4485,10.1637 L3.4635,10.1812 C3.48,10.1997 5.1395,12.0472 6.095,12.6717 L6.1155,12.6847 Z"
                        id="Fill-38"></path>
                    <path
                        d="M14.9665,8.8825 L15.012,8.8395 C15.041,8.812 15.726,8.1685 16.0005,7.6895 L15.9065,7.633 C15.68,8.028 15.1435,8.5595 14.9835,8.7135 C14.236,7.6375 13.4055,6.8535 13.2805,6.738 C13.0935,4.956 12.569,3.721 12.4765,3.514 C12.795,3.0665 13.1535,2.7255 13.2435,2.6425 L13.918,2.8155 L13.9445,2.7065 L13.214,2.519 L13.1925,2.5385 C13.188,2.542 12.747,2.9375 12.369,3.475 L12.35,3.5015 L12.364,3.532 C12.3705,3.5445 12.974,4.832 13.174,6.7715 L13.1765,6.793 L13.1925,6.808 C13.2015,6.816 14.123,7.653 14.931,8.8305 L14.9665,8.8825 Z"
                        id="Fill-39"></path>
                    <path
                        d="M7.8879,5.4909 C7.6419,5.5404 5.9319,5.8929 4.3034,6.4919 L2.4009,4.5964 C2.7604,3.3219 3.6004,2.1444 3.6859,2.0264 C4.7524,1.4414 6.7359,1.0619 6.9334,1.0249 C7.7419,1.3799 8.7964,2.4184 8.9719,2.5949 L7.8879,5.4909 Z M4.2764,6.6209 L4.3089,6.6089 C6.0599,5.9604 7.9194,5.5989 7.9384,5.5949 L7.9679,5.5894 L9.0994,2.5669 L9.0744,2.5414 C9.0254,2.4909 7.8629,1.3034 6.9609,0.9154 L6.9459,0.9089 L6.9299,0.9114 C6.9084,0.9154 4.7534,1.3089 3.6239,1.9339 L3.6134,1.9389 L3.6064,1.9489 C3.5969,1.9614 2.6639,3.2289 2.2869,4.5984 L2.2779,4.6304 L4.2764,6.6209 Z"
                        id="Fill-40"></path>
                    <path
                        d="M1.175,12.85225 L1.28,12.82125 C1.269,12.78425 1.0265,11.90375 1.0835,10.26475 L1.084,10.25175 L1.079,10.23925 C1.0715,10.22275 0.328,8.52825 0.4145,6.88825 L0.4155,6.85325 L0.0535,6.64475 L-1.27897692e-13,6.74225 L0.3035,6.91725 C0.231,8.49975 0.907,10.11675 0.9745,10.27375 C0.918,11.92175 1.1645,12.81525 1.175,12.85225"
                        id="Fill-41"></path>
                    <path
                        d="M10.1789,16.2331 L10.2374,16.1386 C9.7829,15.8421 9.6679,15.6196 9.6669,15.6181 L9.6504,15.5861 L9.6159,15.5871 C9.5949,15.5881 7.5149,15.6696 6.1444,15.1131 L6.1294,15.1066 L6.1139,15.1096 C4.6109,15.4011 3.5634,15.1211 3.5194,15.1091 L3.4909,15.2176 C3.5354,15.2296 4.5999,15.5141 6.1189,15.2226 C7.4159,15.7436 9.3169,15.7081 9.5879,15.7006 C9.6364,15.7766 9.7914,15.9796 10.1789,16.2331"
                        id="Fill-42"></path>
                    <path
                        d="M15.95335,7.66135 L15.95335,7.66135 C15.96735,7.85935 15.97485,8.05985 15.97485,8.26135 C15.97485,9.86235 15.53085,11.35635 14.76335,12.62235 L14.24735,12.11585 C14.82985,10.47185 14.97535,8.79785 14.97535,8.79785 C14.97535,8.79785 15.67985,8.13835 15.95335,7.66135"
                        id="Fill-43"></path>
                </g>
                <path
                    d="M107.418266,22.0541635 L107.418266,19.5823391 C107.418266,17.3647595 107.860343,15.6935035 108.742985,14.5660489 C109.626635,13.4396032 111.045724,12.8761282 112.999748,12.8761282 C114.95478,12.8761282 116.382953,13.4396032 117.284771,14.5660489 C118.187094,15.6935035 118.637751,17.3647595 118.637751,19.5823391 L118.637751,22.0541635 L107.418266,22.0541635 Z M129.970278,9.60676206 C128.617299,6.82621183 126.512384,4.62780148 123.656038,3.01354881 C120.799692,1.39828723 117.247932,0.589647532 112.999748,0.589647532 C108.753078,0.589647532 105.200813,1.39828723 102.343962,3.01354881 C99.4881207,4.62780148 97.382701,6.82621183 96.0292169,9.60676206 C94.6762374,12.3868078 94,15.5805058 94,19.1873517 L94,41.5896475 L107.418266,41.5896475 L107.418266,30.1486317 L118.637751,30.1486317 L118.637751,41.5896475 L132,41.5896475 L132,19.1873517 C132,15.5805058 131.323258,12.3868078 129.970278,9.60676206 L129.970278,9.60676206 Z"
                    fill="#3FAE2A" id="Fill-44"></path>
                <path
                    d="M286.043423,66.5400084 C287.112882,66.5400084 287.648126,66.0792237 287.648126,65.1560817 C287.648126,64.2334638 287.112882,63.7721549 286.043423,63.7721549 L285.109189,63.7721549 L285.109189,66.5400084 L286.043423,66.5400084 Z M281,60.5896475 L286.925213,60.5896475 C288.452791,60.5896475 289.663644,60.9796633 290.556745,61.7586463 C291.450874,62.5371051 291.897682,63.669933 291.897682,65.1560817 C291.897682,66.0907564 291.715154,66.8849417 291.350612,67.5381132 C290.986071,68.1912847 290.468823,68.7039667 289.799383,69.0751107 L292,73.5896475 L287.785921,73.5896475 L285.902029,69.7219916 L285.109189,69.7219916 L285.109189,73.5896475 L281,73.5896475 L281,60.5896475 Z"
                    fill="#006937" id="Fill-45"></path>
                <polygon fill="#006937" id="Fill-46"
                    points="258 60.5896475 267 60.5896475 267 64.1668885 262.117253 64.1668885 262.117253 65.5806956 265.574894 65.5806956 265.574894 68.6153744 262.117253 68.6153744 262.117253 70.0124065 267 70.0124065 267 73.5896475 258 73.5896475"></polygon>
                <polygon fill="#006937" id="Fill-47"
                    points="186 60.5896475 195 60.5896475 195 64.1668885 190.11776 64.1668885 190.11776 65.5806956 193.574894 65.5806956 193.574894 68.6153744 190.11776 68.6153744 190.11776 70.0124065 195 70.0124065 195 73.5896475 186 73.5896475"></polygon>
            </g>
        </g>
    </g>
</svg>