<?xml version="1.0" encoding="UTF-8"?>
<svg width="27px" height="30px" viewBox="0 0 27 30" version="1.1"
    xmlns="http://www.w3.org/2000/svg">
    <title>statements</title>
    <g id="GoalOne" stroke="none" stroke-width="1" fill="none" fill-rule="evenodd">
        <g id="GoalOne-4.0" transform="translate(-49.000000, -516.000000)" stroke-width="1.7">
            <g id="Group-20" transform="translate(30.000000, 501.000000)">
                <g id="statements" transform="translate(20.000000, 16.271186)">
                    <ellipse id="Oval" stroke="#111111" stroke-linecap="square" cx="6.71000016"
                        cy="3.10169499" rx="6.71000016" ry="3.10169499"></ellipse>
                    <path
                        d="M13.4200003,3.10169499 L13.4200003,7.44406797 C13.4200003,9.15682394 10.4157502,10.545763 6.71000016,10.545763 C3.00425007,10.545763 1.77635684e-15,9.15682394 1.77635684e-15,7.44406797 L1.77635684e-15,3.10169499"
                        id="Path" stroke="#111111"></path>
                    <path
                        d="M10.9800003,14.1790885 C9.81978023,14.6220105 8.3319902,14.8881359 6.71000016,14.8881359 C3.00425007,14.8881359 -2.66453526e-15,13.4991969 -2.66453526e-15,11.786441 L-2.66453526e-15,7.44406797"
                        id="Path" stroke="#111111"></path>
                    <path
                        d="M10.9793903,18.5214615 C9.81978023,18.9643835 8.3319902,19.2305089 6.71000016,19.2305089 C3.00425007,19.2305089 2.13162821e-14,17.8415699 2.13162821e-14,16.1288139 L2.13162821e-14,11.786441"
                        id="Path" stroke="#111111"></path>
                    <path
                        d="M10.9800003,22.8638344 C9.81978023,23.3067565 8.3319902,23.5728819 6.71000016,23.5728819 C3.00425007,23.5728819 -2.66453526e-15,22.1839429 -2.66453526e-15,20.4711869 L-2.66453526e-15,16.1288139"
                        id="Path" stroke="#111111"></path>
                    <ellipse id="Oval" stroke="#3FAE2A" stroke-linecap="square" cx="17.6900004"
                        cy="11.166102" rx="6.71000016" ry="3.10169499"></ellipse>
                    <path
                        d="M24.4000006,11.166102 L24.4000006,15.5084749 C24.4000006,17.2212309 21.3957505,18.6101699 17.6900004,18.6101699 C13.9842503,18.6101699 10.9800003,17.2212309 10.9800003,15.5084749 L10.9800003,11.166102"
                        id="Path" stroke="#3FAE2A"></path>
                    <path
                        d="M24.4000006,15.5084749 L24.4000006,19.8508479 C24.4000006,21.5636039 21.3957505,22.9525429 17.6900004,22.9525429 C13.9842503,22.9525429 10.9800003,21.5636039 10.9800003,19.8508479 L10.9800003,15.5084749"
                        id="Path" stroke="#3FAE2A"></path>
                    <path
                        d="M24.4000006,19.8508479 L24.4000006,24.1932209 C24.4000006,25.9059769 21.3957505,27.2949159 17.6900004,27.2949159 C13.9842503,27.2949159 10.9800003,25.9059769 10.9800003,24.1932209 L10.9800003,19.8508479"
                        id="Path" stroke="#3FAE2A"></path>
                </g>
            </g>
        </g>
    </g>
</svg>