<?xml version="1.0" encoding="UTF-8"?>
<svg width="15px" height="15px" viewBox="0 0 15 15" version="1.1"
    xmlns="http://www.w3.org/2000/svg">
    <title>Shape</title>
    <g id="GoalOne" stroke="none" stroke-width="1" fill="none" fill-rule="evenodd">
        <g id="GoalOne-7.21" transform="translate(-308.000000, -176.000000)" fill="#111111"
            fill-rule="nonzero">
            <g id="Group-Copy-4" transform="translate(30.000000, 160.000000)">
                <g id="zoom" transform="translate(278.000000, 16.000000)">
                    <path
                        d="M15.0481661,13.2426054 L10.7140134,9.06677501 C12.3697635,6.56518872 11.8617611,3.21612856 9.5386515,1.31807583 C7.21554191,-0.579976914 3.8324364,-0.410072852 1.71118177,1.71118177 C-0.410072852,3.8324364 -0.579976914,7.21554191 1.31807583,9.5386515 C3.21612856,11.8617611 6.56518872,12.3697635 9.06677501,10.7140134 L13.4009277,14.8898438 L15.0481661,13.2426054 Z M2.36482144,5.85966947 C2.36482144,3.9295182 3.9295182,2.36482144 5.85966947,2.36482144 C7.78982074,2.36482144 9.3545175,3.9295182 9.3545175,5.85966947 C9.3545175,7.78982074 7.78982074,9.3545175 5.85966947,9.3545175 C3.9295182,9.3545175 2.36482144,7.78982074 2.36482144,5.85966947 Z"
                        id="Shape"></path>
                </g>
            </g>
        </g>
    </g>
</svg>