<?xml version="1.0" encoding="UTF-8"?>
<svg width="27px" height="27px" viewBox="0 0 30 30" version="1.1"
    xmlns="http://www.w3.org/2000/svg">
    <title>gear</title>
    <g id="GoalOne" stroke="none" stroke-width="1" fill="none" fill-rule="evenodd"
        stroke-linecap="square">
        <g id="GoalOne-4.0" transform="translate(-29.000000, -52.000000)" stroke="#000000"
            stroke-width="1.79999995">
            <g id="gear" transform="translate(30.000000, 53.000000)">
                <circle id="Oval" cx="14.3999996" cy="14.3999996" r="3.5999999"></circle>
                <path
                    d="M26.1134993,12.3767997 L24.0245994,12.1157997 C23.7814494,11.0892727 23.3745378,10.1086128 22.8194994,9.21149976 L24.1136994,7.5473998 C24.746636,6.73592235 24.6754628,5.57994319 23.9477594,4.8522398 C23.2200561,4.12453641 22.0640769,4.05336323 21.2525994,4.68629988 L19.5884995,5.98049984 C18.6913864,5.42546142 17.7107265,5.01854985 16.6841996,4.77539987 L16.4231996,2.68649993 C16.3042567,1.65813736 15.4334179,0.882216223 14.3981996,0.882216223 C13.3629813,0.882216223 12.4921425,1.65813736 12.3731997,2.68649993 L12.1121997,4.77539987 C11.0856727,5.01854985 10.1050128,5.42546142 9.20789976,5.98049984 L7.5473998,4.68629988 C6.73592235,4.05336323 5.57994319,4.12453641 4.8522398,4.8522398 C4.12453641,5.57994319 4.05336323,6.73592235 4.68629988,7.5473998 L5.98049984,9.21149976 C5.42546142,10.1086128 5.01854985,11.0892727 4.77539987,12.1157997 L2.68649993,12.3767997 C1.65813736,12.4957425 0.882216223,13.3665813 0.882216223,14.4017996 C0.882216223,15.4370179 1.65813736,16.3078567 2.68649993,16.4267996 L4.77539987,16.6877996 C5.01854985,17.7143265 5.42546142,18.6949864 5.98049984,19.5920995 L4.68629988,21.2525994 C4.05336323,22.0640769 4.12453641,23.2200561 4.8522398,23.9477594 C5.57994319,24.6754628 6.73592235,24.746636 7.5473998,24.1136994 L9.21149976,22.8194994 C10.1086128,23.3745378 11.0892727,23.7814494 12.1157997,24.0245994 L12.3767997,26.1134993 C12.4957425,27.1418619 13.3665813,27.917783 14.4017996,27.917783 C15.4370179,27.917783 16.3078567,27.1418619 16.4267996,26.1134993 L16.6877996,24.0245994 C17.7143265,23.7814494 18.6949864,23.3745378 19.5920995,22.8194994 L21.2561994,24.1136994 C22.0676769,24.746636 23.2236561,24.6754628 23.9513594,23.9477594 C24.6790628,23.2200561 24.750236,22.0640769 24.1172994,21.2525994 L22.8230994,19.5884995 C23.3781378,18.6913864 23.7850494,17.7107265 24.0281994,16.6841996 L26.1170993,16.4231996 C27.1454619,16.3042567 27.921383,15.4334179 27.921383,14.3981996 C27.921383,13.3629813 27.1454619,12.4921425 26.1170993,12.3731997 L26.1134993,12.3767997 Z"
                    id="Path"></path>
            </g>
        </g>
    </g>
</svg>