<?xml version="1.0" encoding="UTF-8"?>
<svg height="20px" version="1.1" viewBox="0 0 20 20" width="20px" xmlns="http://www.w3.org/2000/svg">
    <title>oz-seyrek--Ir03_pgpMU-unsplash</title>
    <g id="Symbols" stroke="none" stroke-width="1" fill="none" fill-rule="evenodd">
        <g fill-rule="nonzero" id="Split-payment-/-Selected"
            transform="translate(-21.000000, -19.000000)">
            <g id="split-37" transform="translate(21.000000, 19.000000)">
                <path
                    d="M4.24054761,2.48421067 L7.452632,2.48421067 L7.452632,0 L1.24210533,0 C0.556463189,0 0,0.556463189 0,1.24210533 L0,7.452632 L2.48421067,7.452632 L2.48421067,4.24054761 L8.69473733,10.4510743 L8.69473733,19.8736853 L11.178948,19.8736853 L11.178948,9.42261106 L4.24054761,2.48421067 Z"
                    fill="#111111" id="Path"></path>
                <path
                    d="M18.63158,0 L12.4210533,0 L12.4210533,2.48421067 L15.6331377,2.48421067 L11.6931796,6.42416878 L13.4495166,8.18050573 L17.3894747,4.24054761 L17.3894747,7.452632 L19.8736853,7.452632 L19.8736853,1.24210533 C19.8736853,0.556463189 19.3172221,0 18.63158,0 Z"
                    fill="#3FAE2A" id="Path"></path>
            </g>
        </g>
    </g>
</svg>